<svg xmlns="http://www.w3.org/2000/svg" width="32" height="32" viewBox="0 0 32 32"><g transform="translate(2459.003 -961.068)"><path fill="none" stroke="#383747" stroke-linecap="round" stroke-linejoin="round" d="m -2443.1932,988.65246 c 3.9212,0.084 6.9376,0.7247 6.9376,1.5028 0,0.8351 -3.5123,1.5121 -7.8449,1.5121 -4.3326,0 -7.8449,-0.677 -7.8449,-1.5121 0,-0.7747 3.023,-1.4134 6.9195,-1.5016"/><path fill="none" stroke="#383747" stroke-linecap="round" stroke-linejoin="round" d="m -2443.1899,979.66226 0,10.5282 -1.7991,0 0,-10.5282"/><path fill="none" stroke="#383747" stroke-linecap="round" stroke-linejoin="round" d="m -2436.034,972.37056 -1.6876,1.7125 -6.3081,6.4013 -6.3081,-6.4013 -6.3081,-6.4013 12.6162,0 4.5504,0"/><path fill="#faa41a" stroke="#383747" stroke-linecap="round" stroke-linejoin="round" d="m -2453.4294,970.83771 -0.031,0.0625 3.125,3.1875 6.3124,6.40625 6.3126,-6.40625 1.6874,-1.71875 -0.2187,-0.28125 -2.0625,-1.25 -15.125,0 z"/><ellipse cx="-2448.165" cy="973.011" fill="#fff" rx=".51" ry=".511"/><ellipse cx="-2444.042" cy="976.986" fill="#fff" rx=".51" ry=".511"/><ellipse cx="-2441.242" cy="974.483" fill="#fff" rx=".51" ry=".511"/><ellipse cx="-2434.42" cy="967.534" fill="#faa41a" stroke="#383747" stroke-linecap="round" stroke-linejoin="round" rx="5.06" ry="5.065"/><path fill="none" stroke="#383747" stroke-linecap="round" stroke-linejoin="round" d="M-2434.4943 962.49886l0 10.0729M-2429.4625 967.53536l-10.0636 0M-2430.859 971.01756l-7.2707-6.9645M-2438.0298 971.11916l7.0709-7.1676"/><ellipse cx="-2443.62" cy="974.1" fill="#fff" rx=".51" ry=".511"/><ellipse cx="-2446.073" cy="975.669" fill="#fff" rx=".51" ry=".511"/><ellipse cx="-2439.709" cy="973.017" fill="#fff" rx=".51" ry=".511"/><ellipse cx="-2445.145" cy="972.531" fill="#fff" rx=".51" ry=".511"/><path fill="none" stroke="#fff" stroke-linecap="round" stroke-linejoin="round" d="m -2433.9598,964.39164 a 2.4969709,2.4969709 0 0 1 2.4741,2.13499"/></g></svg>