<svg xmlns="http://www.w3.org/2000/svg" viewBox="0 0 64 64"><path fill="#e6e6e6" d="M20,5.59q1.013-.46,2.067-.845l1.889-.616a29.01,29.01,0,1,1-6.1,2.547Z"/><path fill="#ccc" d="M52.067,22.969A22,22,0,0,0,10.022,31v2a22.012,22.012,0,0,0,31,19.07l2-1.026a22.2,22.2,0,0,0,2.025-1.33l1.974-1.642a22.039,22.039,0,0,0,5.036-7.026"/><path fill="#f49c27" d="M17.61,40.36a24.1,24.1,0,0,0,3.36,1.94l10.06,1.37c5.72-1.21,10.58-5.55,13.39-8.58a.1.1,0,0,1,.17.05,7.314,7.314,0,0,0,2.34,4.81c3.05,2.37,8.59.35,8.59.35s.6-5.87-2.45-8.25a.558.558,0,0,0-.08-.05l.06-.03c3.06-2.36,2.5-8.23,2.5-8.23s-5.53-2.06-8.6.29a7.373,7.373,0,0,0-2.37,4.82.1.1,0,0,1-.17.05c-2.53-2.73-6.74-6.53-11.74-8.14A15.276,15.276,0,0,0,28,20a15.691,15.691,0,0,0-5.29.97,22.705,22.705,0,0,0-5.1,2.67"/><path fill="#ed891b" d="M21.551 40.015c-.563 1.845-1.049 4.624.21 6.636 2.05 3.278 7.951 3.284 7.951 3.284s2.577-5.309.527-8.586a5.69 5.69 0 0 0-1.217-1.318A9.21 9.21 0 0 0 23 38M32.67 20.76A15.276 15.276 0 0 0 28 20a15.691 15.691 0 0 0-5.29.97c0-1.83.33-4.11 1.79-5.54C27.26 12.72 33 14.1 33 14.1S33.83 17.89 32.67 20.76zM21 32a11.936 11.936 0 0 1-3.39 8.36 37.978 37.978 0 0 1-7.63-7.09 2.017 2.017 0 0 1 0-2.54 38.26 38.26 0 0 1 7.63-7.09A11.936 11.936 0 0 1 21 32z"/><rect width="2" height="2" x="14" y="31" fill="#ad5c12"/><path fill="#ad5c12" d="M28 29a1 1 0 0 1-.707-.293L24.586 26l2.707-2.707a1 1 0 0 1 1.414 1.414L27.414 26l1.293 1.293A1 1 0 0 1 28 29zM28 38a1 1 0 0 1-.707-.293L24.586 35l2.707-2.707a1 1 0 0 1 1.414 1.414L27.414 35l1.293 1.293A1 1 0 0 1 28 38zM35 34a1 1 0 0 1-.707-.293L31.586 31l2.707-2.707a1 1 0 0 1 1.414 1.414L34.414 31l1.293 1.293A1 1 0 0 1 35 34z"/><circle cx="39" cy="17" r="2" fill="#c1272d"/><circle cx="42" cy="20" r="2" fill="#c1272d"/><path fill="#009245" d="M43.341,41.027A5.3,5.3,0,1,1,34.319,46.6l4.395-2.715Z"/><rect width="2" height="2" x="25" y="43" fill="#ad5c12"/><rect width="2" height="2" x="39" y="30" fill="#ad5c12"/><rect width="2" height="2" x="49" y="27" fill="#ad5c12"/><rect width="2" height="2" x="50" y="36" fill="#ad5c12"/><path d="M32,2a30.057,30.057,0,0,0-8.317,1.168l.553,1.922a28.01,28.01,0,1,1-5.891,2.459L17.369,5.8A30.008,30.008,0,1,0,32,2Z"/><path d="M21.728 3.805c-.724.264-1.444.558-2.14.875l.829 1.82c.649-.295 1.321-.57 2-.816zM45.644 50.518l-1.187-1.61a21.021 21.021 0 0 1-1.934 1.269l1 1.731A23.313 23.313 0 0 0 45.644 50.518z"/><path d="M9.088,30.271a3.021,3.021,0,0,0,0,3.456,22.993,22.993,0,0,0,32.35,19.254l-.822-1.823a21,21,0,0,1-29.124-14.7,36.526,36.526,0,0,0,5.553,4.731h0l.694.472.021-.021A24.9,24.9,0,0,0,20,42.918a7.135,7.135,0,0,0,.915,4.264c2.317,3.7,8.534,3.753,8.8,3.753h.627l.273-.564a15.27,15.27,0,0,0,1.411-5.935c4.824-1.261,9-4.5,11.944-7.435a6.419,6.419,0,0,0,6.443,5.079,20.957,20.957,0,0,1-4.068,5.261L47.707,48.8a22.937,22.937,0,0,0,5-6.828,16.431,16.431,0,0,0,3.156-.735l.588-.214.064-.624c.025-.24.522-5.459-2.049-8.4,2.562-2.927,2.1-8.117,2.079-8.357l-.059-.623L55.9,22.8a16.421,16.421,0,0,0-3.176-.761A22.979,22.979,0,0,0,9.088,30.271Zm1.934,2.685h0c-.089-.106-.186-.22-.264-.315a1.018,1.018,0,0,1-.006-1.273,37.738,37.738,0,0,1,6.71-6.4,11.01,11.01,0,0,1,0,14.066A37.4,37.4,0,0,1,11.022,32.956ZM52.51,31.122l-1.5.751,1.425.957.056.035c2,1.6,2.115,5.223,2.072,6.7-1.743.5-5.133,1.065-7.018-.4a6.457,6.457,0,0,1-1.96-4.141l-.138-.7-.591-.2a1.119,1.119,0,0,0-1.167.292c-2.751,2.966-6.986,6.675-11.911,8.046a5.868,5.868,0,0,0-.689-1.638,6.078,6.078,0,0,0-1.454-1.579,1,1,0,1,0-1.221,1.584,4.081,4.081,0,0,1,.98,1.056c1.366,2.185.225,5.645-.325,7.024-1.481-.109-5.092-.6-6.459-2.782-1.1-1.754-.534-4.4-.1-5.814a1,1,0,0,0-1.913-.584c-.105.344-.2.717-.289,1.1q-.586-.32-1.17-.683a13,13,0,0,0-.007-16.291,20.87,20.87,0,0,1,3.918-1.938,13.9,13.9,0,0,1,9.317-.2c4.738,1.526,8.767,5.122,11.34,7.9a1.1,1.1,0,0,0,1.138.266l.637-.273.091-.6a6.537,6.537,0,0,1,1.989-4.176c2.049-1.571,5.613-.758,7.034-.342C54.64,26.271,54.338,29.633,52.51,31.122Zm-20.5-11.583a15.634,15.634,0,0,0-8.221.047A5.7,5.7,0,0,1,25.2,16.144c1.839-1.808,5.466-1.435,6.932-1.193A12.609,12.609,0,0,1,32.011,19.539ZM32,11A21.051,21.051,0,0,1,50.427,21.925a7.117,7.117,0,0,0-4.087,1.313A7.11,7.11,0,0,0,43.963,27a29.927,29.927,0,0,0-10.047-6.84,15.161,15.161,0,0,0,.061-6.271l-.134-.612-.609-.146c-.256-.063-6.316-1.475-9.434,1.588a8.024,8.024,0,0,0-2.068,5.57,23.672,23.672,0,0,0-3.976,2.07l-.015-.015-.687.468-.01.006h0a36.314,36.314,0,0,0-5.553,4.728A20.94,20.94,0,0,1,32,11Z"/><rect width="2" height="2" x="14" y="31"/><path d="M28.707 23.293a1 1 0 0 0-1.414 0L24.586 26l2.707 2.707a1 1 0 0 0 1.414-1.414L27.414 26l1.293-1.293A1 1 0 0 0 28.707 23.293zM28.707 32.293a1 1 0 0 0-1.414 0L24.586 35l2.707 2.707a1 1 0 0 0 1.414-1.414L27.414 35l1.293-1.293A1 1 0 0 0 28.707 32.293zM35.707 28.293a1 1 0 0 0-1.414 0L31.586 31l2.707 2.707a1 1 0 0 0 1.414-1.414L34.414 31l1.293-1.293A1 1 0 0 0 35.707 28.293zM39 20a3 3 0 1 0 3-3 3 3 0 1 0-3 3zm4 0a1 1 0 1 1-1-1A1 1 0 0 1 43 20zm-4-4a1 1 0 1 1-1 1A1 1 0 0 1 39 16zM44.192 40.5l-.525-.851L32.942 46.276l.526.85a6.259 6.259 0 0 0 3.913 2.822A6.3 6.3 0 0 0 44.192 40.5zm-3.1 6.973a4.313 4.313 0 0 1-5.3-.61l7.122-4.4A4.312 4.312 0 0 1 41.092 47.475z"/><rect width="2" height="2" x="25" y="43"/><rect width="2" height="2" x="39" y="30"/><rect width="2" height="2" x="49" y="27"/><rect width="2" height="2" x="50" y="36"/></svg>