<svg xmlns="http://www.w3.org/2000/svg" enable-background="new 0 0 468 468" viewBox="0 0 468 468"><path fill="#fbab68" d="M441.652,64.475L441.652,64.475c-8.649-8.707-22.765-8.565-31.238,0.315L255.584,227.063
						c-25.139-13.992-55.689-6.1-78.515,16.879c-13.701,13.793-23.892,42.335-28.215,69.735
						c-2.108,13.365-1.277,29.604,7.204,38.142c8.481,8.538,24.612,9.374,37.888,7.252c27.217-4.352,55.569-14.612,69.27-28.405
						c22.825-22.978,30.665-53.733,16.765-79.041L441.34,95.593C450.097,87.125,450.238,73.118,441.652,64.475z"/><path fill="#ea8e49" d="M441.653,64.475L441.653,64.475c-1.756-1.768-3.744-3.152-5.858-4.191
						c4.055,8.275,2.575,18.566-4.419,25.33L273.68,238.104c-2.119,2.049-2.7,5.201-1.506,7.898
						c10.805,24.415,2.608,53.009-18.922,74.684c-13.701,13.793-42.053,24.053-69.27,28.405c-10.652,1.703-23.132,1.49-32.034-3.065
						c1.106,2.168,2.46,4.13,4.111,5.792c8.481,8.538,24.612,9.374,37.888,7.252c27.217-4.352,55.569-14.612,69.27-28.405
						c22.825-22.978,30.665-53.733,16.765-79.041L441.34,95.593C450.097,87.125,450.238,73.118,441.653,64.475z"/><path fill="#f7f7f7" d="M229.77,439.119L229.77,439.119c-115.853,0-209.769-93.917-209.769-209.769v-34.481
						c0-5.503,4.461-9.965,9.965-9.965h399.608c5.503,0,9.965,4.461,9.965,9.965v34.481
						C439.539,345.202,345.622,439.119,229.77,439.119z"/><path fill="#ededed" d="M37.938,229.064v-44.159h-7.972c-5.503,0-9.965,4.468-9.965,9.978v34.181
						c0,116.01,93.917,210.056,209.769,210.056h0c3.006,0,5.993-0.078,8.968-0.204C127.048,434.209,37.938,342.064,37.938,229.064z"/><path fill="#ffd766" d="M229.77,439.119L229.77,439.119c115.853,0,209.769-94.045,209.769-210.056H20.001
						C20.001,345.074,113.918,439.119,229.77,439.119z"/><path fill="#ffc533" d="M37.938,229.064H20.001c0,116.01,93.917,210.056,209.769,210.056h0
						c3.006,0,5.993-0.078,8.968-0.204C127.048,434.209,37.938,342.064,37.938,229.064z"/><rect width="199.298" height="46.54" x="130.121" y="416.46" fill="#e0e0e0"/><rect width="17.937" height="46.54" x="130.121" y="416.46" fill="#c9c9c9"/><path fill="#333" d="M287.574 321.799c-2.761 0-5-2.238-5-5v-9.446c0-2.762 2.239-5 5-5s5 2.238 5 5v9.446C292.574 319.56 290.335 321.799 287.574 321.799zM217.819 391.648c-2.761 0-5-2.238-5-5v-9.447c0-2.762 2.239-5 5-5s5 2.238 5 5v9.447C222.819 389.41 220.58 391.648 217.819 391.648zM98.241 341.756c-2.761 0-5-2.238-5-5v-9.447c0-2.762 2.239-5 5-5s5 2.238 5 5v9.447C103.241 339.518 101.002 341.756 98.241 341.756zM158.03 271.907c-2.761 0-5-2.238-5-5v-9.447c0-2.762 2.239-5 5-5s5 2.238 5 5v9.447C163.03 269.668 160.791 271.907 158.03 271.907zM358.324 361.713c-2.761 0-5-2.238-5-5v-9.447c0-2.762 2.239-5 5-5s5 2.238 5 5v9.447C363.324 359.474 361.085 361.713 358.324 361.713z"/><path fill="#333" d="M452.999,80.15c0.073-7.244-2.697-14.062-7.799-19.199c-10.461-10.531-28.15-10.357-38.403,0.386
				L293.669,179.904H29.966c-8.251,0-14.965,6.713-14.965,14.965v34.124c-0.292,77.24,42.784,150.234,110.121,187.945V463
				c0,2.762,2.239,5,5,5h199.297c2.761,0,5-2.238,5-5v-46.053c67.488-37.798,110.12-110.593,110.12-187.888v-34.189
				c0-8.252-6.713-14.965-14.965-14.965h-68.23l83.471-80.716C450.02,94.155,452.927,87.394,452.999,80.15z M324.419,458H135.121
				v-36.539h189.297V458z M323.253,411.46H136.286C71.651,378.108,26.915,311.316,25.061,234.064h409.418
				C432.625,311.316,387.889,378.107,323.253,411.46z M434.539,194.869v29.194H25.001v-29.194c0-2.737,2.227-4.965,4.965-4.965
				h399.608C432.312,189.904,434.539,192.132,434.539,194.869z M437.865,91.998l-90.906,87.906h-39.467L414.032,68.242
				c6.442-6.751,17.458-6.904,24.073-0.243C444.585,74.522,444.491,85.592,437.865,91.998z"/><path fill="#9ccc65" d="M245.864,361.598c0,13.755,11.176,24.947,24.913,24.947c13.736,0,24.911-11.191,24.911-24.947
				H245.864z"/><path fill="#333" d="M270.777,391.545c-16.494,0-29.913-13.434-29.913-29.946c0-2.762,2.239-5,5-5h49.824
				c2.761,0,5,2.238,5,5C300.688,378.111,287.27,391.545,270.777,391.545z M251.497,366.599c2.221,8.586,10.022,14.946,19.28,14.946
				c9.256,0,17.057-6.36,19.278-14.946H251.497z"/><path fill="#ed4848" d="M163.452,368.514c-9.891,0-17.937-8.058-17.937-17.962s8.047-17.961,17.937-17.961
				c9.89,0,17.936,8.057,17.936,17.961S173.342,368.514,163.452,368.514z"/><path fill="#333" d="M163.452,373.514c-12.648,0-22.938-10.3-22.938-22.962c0-12.661,10.29-22.962,22.938-22.962
				c12.647,0,22.936,10.3,22.936,22.962C186.388,363.214,176.099,373.514,163.452,373.514z M163.452,337.591
				c-7.134,0-12.938,5.815-12.938,12.961c0,7.147,5.804,12.961,12.938,12.961c7.133,0,12.936-5.815,12.936-12.961
				C176.388,343.406,170.585,337.591,163.452,337.591z"/><path fill="#ed4848" d="M347.346,307.568c-9.891,0-17.937-8.058-17.937-17.962s8.047-17.961,17.937-17.961
				c9.89,0,17.936,8.057,17.936,17.961S357.236,307.568,347.346,307.568z"/><path fill="#333" d="M347.346,312.569c-12.648,0-22.938-10.301-22.938-22.963c0-12.66,10.29-22.961,22.938-22.961
				c12.647,0,22.936,10.3,22.936,22.961C370.283,302.268,359.993,312.569,347.346,312.569z M347.346,276.646
				c-7.134,0-12.938,5.814-12.938,12.96c0,7.148,5.804,12.962,12.938,12.962c7.133,0,12.936-5.815,12.936-12.962
				C360.283,282.46,354.479,276.646,347.346,276.646z"/><path fill="#ed4848" d="M93.698,298.664c-9.891,0-17.937-8.058-17.937-17.962s8.046-17.961,17.937-17.961
				c9.89,0,17.936,8.057,17.936,17.961S103.588,298.664,93.698,298.664z"/><path fill="#333" d="M93.698,303.664c-12.647,0-22.937-10.3-22.937-22.962s10.29-22.962,22.937-22.962
				s22.937,10.3,22.937,22.962S106.345,303.664,93.698,303.664z M93.698,267.741c-7.133,0-12.937,5.815-12.937,12.961
				c0,7.147,5.804,12.961,12.937,12.961s12.937-5.815,12.937-12.961C106.635,273.556,100.831,267.741,93.698,267.741z"/><g><path fill="#9ccc65" d="M256.281,266.447c-3.668-1.877-9.504,0.486-15.306,5.596c-1.749-9.476-6.105-16.193-11.205-16.193
				s-9.455,6.717-11.205,16.193c-5.802-5.11-11.639-7.473-15.306-5.596c-5.752,2.944-3.993,15.193,3.931,27.358
				c7.014,10.769,16.503,14.262,22.58,13.707c6.077,0.555,15.566-2.938,22.58-13.707
				C260.274,281.64,262.033,269.391,256.281,266.447z"/><path fill="#333" d="M230.974,312.565c-11.87,0-21.5-6.091-27.975-16.031c-5.235-8.038-14.667-28.066-2.018-34.538
				c4.027-2.063,9.17-1.398,14.667,1.762c3.031-8.115,8.127-12.908,14.121-12.908c5.994,0,11.091,4.792,14.122,12.908
				c5.496-3.16,10.64-3.823,14.667-1.762c12.502,6.754,3.353,26.29-2.019,34.538C248.778,308.452,238.3,312.565,230.974,312.565z
				 M206.093,270.805c-5.144,0,4.517,19.09,5.286,20.272c6.355,9.756,14.263,11.79,17.936,11.455c0.303-0.027,0.607-0.027,0.91,0
				c3.681,0.35,11.582-1.699,17.936-11.455c3.09-4.745,8.821-14.22,5.841-20.179c-0.703-0.354-4.313,0.134-9.724,4.899
				c-2.865,2.521-7.528,0.909-8.221-2.846c-1.559-8.447-4.918-12.1-6.288-12.1c-1.369,0-4.728,3.654-6.288,12.101
				c-0.693,3.752-5.357,5.369-8.221,2.845C210.715,271.792,207.44,270.805,206.093,270.805z"/></g><g><path fill="#f7f7f7" d="M214.954,86.811L214.954,86.811c0.966-12.277-2.03-24.541-8.559-35.031l-0.453-0.728
					c-9.838-15.808-3.773-36.547,13.084-44.741l2.723-1.324l1.411,9.25c1.18,7.741,3.928,15.168,8.079,21.837l2.419,3.887
					C244.779,57.833,235.432,81.245,214.954,86.811L214.954,86.811z"/><path fill="#ededed" d="M224.919,76.832L224.919,76.832L224.919,76.832c0.966-12.277-2.03-24.541-8.559-35.031
					l-0.453-0.728c-6.571-10.559-6.039-23.313,0.057-33.064c-14.497,9.095-19.239,28.233-10.022,43.042l0.453,0.728
					c6.529,10.491,9.525,22.754,8.559,35.031l0,0h0c8.192-2.227,14.597-7.313,18.628-13.755
					C230.983,74.682,228.085,75.972,224.919,76.832z"/><path fill="#333" d="M214.954,91.811c-2.843,0-5.203-2.627-4.985-5.393c0.905-11.498-2.05-23.026-8.273-32.727
					c-5.413-8.697-6.893-19.318-4.06-29.14c3.245-11.253,11.538-19.231,21.927-24.061c3.078-1.501,6.655,0.647,7.128,3.743
					c1.569,10.289,3.15,20.136,8.792,29.199l2.419,3.888c6.108,9.815,7.191,21.605,2.971,32.348
					C237.181,79.064,226.165,91.811,214.954,91.811z M217.872,12.737c-25.633,17.389,1.193,44.637,2.197,66.598
					c12.739-7.28,17.119-24.237,9.342-36.731l-2.419-3.887c-4.534-7.284-7.487-15.267-8.777-23.725L217.872,12.737z"/><path fill="#f7f7f7" d="M134.954,136.812L134.954,136.812c0.966-12.277-2.03-24.541-8.559-35.031l-0.453-0.728
					c-9.838-15.808-3.773-36.547,13.084-44.741l2.723-1.324l1.411,9.25c1.18,7.741,3.928,15.168,8.079,21.837l2.419,3.887
					C164.779,107.834,155.432,131.246,134.954,136.812L134.954,136.812z"/><path fill="#ededed" d="M144.919,126.834L144.919,126.834L144.919,126.834c0.966-12.277-2.03-24.541-8.559-35.031
					l-0.453-0.728c-6.571-10.559-6.039-23.313,0.057-33.064c-14.497,9.095-19.239,28.233-10.022,43.042l0.453,0.728
					c6.529,10.491,9.525,22.754,8.559,35.031l0,0h0c8.192-2.227,14.597-7.313,18.628-13.755
					C150.983,124.684,148.085,125.973,144.919,126.834z"/><path fill="#333" d="M134.954,141.812c-2.843,0-5.203-2.627-4.985-5.393c0.905-11.498-2.05-23.026-8.273-32.727
					c-5.413-8.697-6.893-19.318-4.06-29.14c3.245-11.253,11.538-19.231,21.927-24.061c3.078-1.501,6.655,0.647,7.128,3.743
					c1.569,10.289,3.15,20.136,8.792,29.199l2.419,3.888c6.108,9.815,7.191,21.605,2.971,32.348
					C157.181,129.065,146.165,141.812,134.954,141.812z M137.872,62.739c-25.633,17.389,1.193,44.637,2.197,66.598
					c12.739-7.28,17.119-24.237,9.342-36.732l-2.419-3.887c-4.534-7.284-7.487-15.267-8.777-23.725L137.872,62.739z"/><g><path fill="#f7f7f7" d="M294.954,136.812L294.954,136.812c0.966-12.277-2.03-24.541-8.559-35.031l-0.453-0.728
					c-9.838-15.808-3.773-36.547,13.084-44.741l2.723-1.324l1.411,9.25c1.18,7.741,3.928,15.168,8.079,21.837l2.419,3.887
					C324.779,107.834,315.432,131.246,294.954,136.812L294.954,136.812z"/><path fill="#ededed" d="M304.919,126.834L304.919,126.834L304.919,126.834c0.966-12.277-2.03-24.541-8.559-35.031
					l-0.453-0.728c-6.571-10.559-6.039-23.313,0.057-33.064c-14.497,9.095-19.239,28.233-10.022,43.042l0.453,0.728
					c6.529,10.491,9.525,22.754,8.559,35.031l0,0h0c8.192-2.227,14.596-7.313,18.628-13.755
					C310.983,124.684,308.085,125.973,304.919,126.834z"/><path fill="#333" d="M294.954,141.812c-2.843,0-5.203-2.627-4.985-5.393c0.905-11.498-2.05-23.026-8.273-32.727
					c-5.413-8.697-6.893-19.318-4.06-29.14c3.245-11.253,11.538-19.231,21.927-24.061c3.078-1.501,6.655,0.647,7.128,3.743
					c1.569,10.289,3.15,20.136,8.792,29.199l2.419,3.888c6.108,9.815,7.191,21.605,2.971,32.348
					C317.181,129.065,306.165,141.812,294.954,141.812z M297.872,62.739c-25.633,17.389,1.193,44.637,2.197,66.598
					c12.739-7.28,17.119-24.237,9.342-36.732l-2.419-3.887c-4.534-7.284-7.487-15.267-8.777-23.725L297.872,62.739z"/></g></g><g><path fill="#333" d="M227.512 137.392c-2.761 0-5-2.238-5-5v-16.431c0-2.762 2.239-5 5-5s5 2.238 5 5v16.431C232.512 135.154 230.274 137.392 227.512 137.392zM257.679 169.128c-2.761 0-5-2.238-5-5v-16.431c0-2.762 2.239-5 5-5 2.761 0 5 2.238 5 5v16.431C262.679 166.89 260.44 169.128 257.679 169.128zM106.47 165.332c-2.761 0-5-2.238-5-5v-16.431c0-2.762 2.239-5 5-5s5 2.238 5 5v16.431C111.47 163.094 109.231 165.332 106.47 165.332zM181.931 169.128c-2.761 0-5-2.238-5-5v-16.431c0-2.762 2.239-5 5-5s5 2.238 5 5v16.431C186.931 166.89 184.693 169.128 181.931 169.128z"/></g></svg>